<mxfile host="Electron" agent="Mozilla/5.0 (Windows NT 10.0; Win64; x64) AppleWebKit/537.36 (KHTML, like Gecko) draw.io/26.0.4 Chrome/128.0.6613.186 Electron/32.2.5 Safari/537.36" version="26.0.4">
  <diagram name="Page-1" id="M2rh4UKAgIz3gM9Ji5Ni">
    <mxGraphModel dx="1843" dy="887" grid="1" gridSize="10" guides="1" tooltips="1" connect="1" arrows="1" fold="1" page="1" pageScale="1" pageWidth="1169" pageHeight="827" math="0" shadow="0">
      <root>
        <mxCell id="0" />
        <mxCell id="1" parent="0" />
        <mxCell id="GYu9iGJZc0O5hkO0sN7D-2" value="" style="ellipse;html=1;shape=startState;fillColor=#000000;strokeColor=#ff0000;" vertex="1" parent="1">
          <mxGeometry x="345" y="118" width="30" height="30" as="geometry" />
        </mxCell>
        <mxCell id="GYu9iGJZc0O5hkO0sN7D-3" value="" style="edgeStyle=orthogonalEdgeStyle;html=1;verticalAlign=bottom;endArrow=open;endSize=8;strokeColor=#ff0000;rounded=0;entryX=0.5;entryY=0;entryDx=0;entryDy=0;" edge="1" source="GYu9iGJZc0O5hkO0sN7D-2" parent="1" target="GYu9iGJZc0O5hkO0sN7D-4">
          <mxGeometry relative="1" as="geometry">
            <mxPoint x="265" y="208" as="targetPoint" />
          </mxGeometry>
        </mxCell>
        <mxCell id="GYu9iGJZc0O5hkO0sN7D-4" value="temp &amp;lt; temp_min" style="rhombus;whiteSpace=wrap;html=1;fontColor=#000000;fillColor=#ffffc0;strokeColor=#ff0000;" vertex="1" parent="1">
          <mxGeometry x="140" y="218" width="150" height="40" as="geometry" />
        </mxCell>
        <mxCell id="GYu9iGJZc0O5hkO0sN7D-5" value="no" style="edgeStyle=orthogonalEdgeStyle;html=1;align=left;verticalAlign=bottom;endArrow=open;endSize=8;strokeColor=#ff0000;rounded=0;entryX=0;entryY=0.5;entryDx=0;entryDy=0;" edge="1" source="GYu9iGJZc0O5hkO0sN7D-4" parent="1" target="GYu9iGJZc0O5hkO0sN7D-11">
          <mxGeometry x="-1" relative="1" as="geometry">
            <mxPoint x="390" y="238" as="targetPoint" />
          </mxGeometry>
        </mxCell>
        <mxCell id="GYu9iGJZc0O5hkO0sN7D-6" value="yes" style="edgeStyle=orthogonalEdgeStyle;html=1;align=left;verticalAlign=top;endArrow=open;endSize=8;strokeColor=#ff0000;rounded=0;entryX=0.5;entryY=0;entryDx=0;entryDy=0;" edge="1" source="GYu9iGJZc0O5hkO0sN7D-4" parent="1" target="GYu9iGJZc0O5hkO0sN7D-7">
          <mxGeometry x="-1" relative="1" as="geometry">
            <mxPoint x="250" y="318" as="targetPoint" />
            <Array as="points" />
          </mxGeometry>
        </mxCell>
        <mxCell id="GYu9iGJZc0O5hkO0sN7D-7" value="chauffage++" style="rounded=1;whiteSpace=wrap;html=1;arcSize=40;fontColor=#000000;fillColor=#ffffc0;strokeColor=#ff0000;" vertex="1" parent="1">
          <mxGeometry x="155" y="298" width="120" height="40" as="geometry" />
        </mxCell>
        <mxCell id="GYu9iGJZc0O5hkO0sN7D-8" value="" style="edgeStyle=orthogonalEdgeStyle;html=1;verticalAlign=bottom;endArrow=open;endSize=8;strokeColor=#ff0000;rounded=0;" edge="1" source="GYu9iGJZc0O5hkO0sN7D-7" parent="1">
          <mxGeometry relative="1" as="geometry">
            <mxPoint x="215" y="378" as="targetPoint" />
          </mxGeometry>
        </mxCell>
        <mxCell id="GYu9iGJZc0O5hkO0sN7D-11" value="temp &amp;gt; temp_max" style="rhombus;whiteSpace=wrap;html=1;fontColor=#000000;fillColor=#ffffc0;strokeColor=#ff0000;" vertex="1" parent="1">
          <mxGeometry x="340" y="218" width="150" height="40" as="geometry" />
        </mxCell>
        <mxCell id="GYu9iGJZc0O5hkO0sN7D-12" value="no" style="edgeStyle=orthogonalEdgeStyle;html=1;align=left;verticalAlign=bottom;endArrow=open;endSize=8;strokeColor=#ff0000;rounded=0;" edge="1" source="GYu9iGJZc0O5hkO0sN7D-11" parent="1">
          <mxGeometry x="-1" relative="1" as="geometry">
            <mxPoint x="510" y="378" as="targetPoint" />
            <Array as="points">
              <mxPoint x="510" y="238" />
              <mxPoint x="510" y="378" />
            </Array>
          </mxGeometry>
        </mxCell>
        <mxCell id="GYu9iGJZc0O5hkO0sN7D-14" value="Chauffage--" style="rounded=1;whiteSpace=wrap;html=1;arcSize=40;fontColor=#000000;fillColor=#ffffc0;strokeColor=#ff0000;" vertex="1" parent="1">
          <mxGeometry x="355" y="298" width="120" height="40" as="geometry" />
        </mxCell>
        <mxCell id="GYu9iGJZc0O5hkO0sN7D-15" value="" style="edgeStyle=orthogonalEdgeStyle;html=1;verticalAlign=bottom;endArrow=open;endSize=8;strokeColor=#ff0000;rounded=0;" edge="1" source="GYu9iGJZc0O5hkO0sN7D-14" parent="1">
          <mxGeometry relative="1" as="geometry">
            <mxPoint x="415" y="378" as="targetPoint" />
            <Array as="points">
              <mxPoint x="415" y="378" />
            </Array>
          </mxGeometry>
        </mxCell>
        <mxCell id="GYu9iGJZc0O5hkO0sN7D-17" value="" style="edgeStyle=orthogonalEdgeStyle;html=1;verticalAlign=bottom;endArrow=open;endSize=8;strokeColor=#ff0000;rounded=0;exitX=0.5;exitY=1;exitDx=0;exitDy=0;entryX=0.5;entryY=0;entryDx=0;entryDy=0;" edge="1" parent="1" source="GYu9iGJZc0O5hkO0sN7D-11" target="GYu9iGJZc0O5hkO0sN7D-14">
          <mxGeometry relative="1" as="geometry">
            <mxPoint x="225" y="378" as="targetPoint" />
            <mxPoint x="225" y="348" as="sourcePoint" />
          </mxGeometry>
        </mxCell>
        <mxCell id="GYu9iGJZc0O5hkO0sN7D-51" value="&lt;span style=&quot;text-align: left;&quot;&gt;yes&lt;/span&gt;" style="edgeLabel;html=1;align=center;verticalAlign=middle;resizable=0;points=[];" vertex="1" connectable="0" parent="GYu9iGJZc0O5hkO0sN7D-17">
          <mxGeometry x="-0.4897" y="1" relative="1" as="geometry">
            <mxPoint x="14" y="9" as="offset" />
          </mxGeometry>
        </mxCell>
        <mxCell id="GYu9iGJZc0O5hkO0sN7D-19" value="" style="shape=line;html=1;strokeWidth=6;strokeColor=#ff0000;" vertex="1" parent="1">
          <mxGeometry x="200" y="378" width="320" height="10" as="geometry" />
        </mxCell>
        <mxCell id="GYu9iGJZc0O5hkO0sN7D-20" value="" style="edgeStyle=orthogonalEdgeStyle;html=1;verticalAlign=bottom;endArrow=open;endSize=8;strokeColor=#ff0000;rounded=0;entryX=0.5;entryY=0;entryDx=0;entryDy=0;" edge="1" source="GYu9iGJZc0O5hkO0sN7D-19" parent="1" target="GYu9iGJZc0O5hkO0sN7D-23">
          <mxGeometry relative="1" as="geometry">
            <mxPoint x="360" y="458" as="targetPoint" />
            <Array as="points">
              <mxPoint x="360" y="458" />
              <mxPoint x="215" y="458" />
            </Array>
          </mxGeometry>
        </mxCell>
        <mxCell id="GYu9iGJZc0O5hkO0sN7D-23" value="hum &amp;lt; hum_min" style="rhombus;whiteSpace=wrap;html=1;fontColor=#000000;fillColor=#ffffc0;strokeColor=#ff0000;" vertex="1" parent="1">
          <mxGeometry x="140" y="468" width="150" height="40" as="geometry" />
        </mxCell>
        <mxCell id="GYu9iGJZc0O5hkO0sN7D-24" value="no" style="edgeStyle=orthogonalEdgeStyle;html=1;align=left;verticalAlign=bottom;endArrow=open;endSize=8;strokeColor=#ff0000;rounded=0;entryX=0;entryY=0.5;entryDx=0;entryDy=0;" edge="1" parent="1" source="GYu9iGJZc0O5hkO0sN7D-23" target="GYu9iGJZc0O5hkO0sN7D-28">
          <mxGeometry x="-1" relative="1" as="geometry">
            <mxPoint x="390" y="488" as="targetPoint" />
          </mxGeometry>
        </mxCell>
        <mxCell id="GYu9iGJZc0O5hkO0sN7D-25" value="yes" style="edgeStyle=orthogonalEdgeStyle;html=1;align=left;verticalAlign=top;endArrow=open;endSize=8;strokeColor=#ff0000;rounded=0;entryX=0.5;entryY=0;entryDx=0;entryDy=0;" edge="1" parent="1" source="GYu9iGJZc0O5hkO0sN7D-23" target="GYu9iGJZc0O5hkO0sN7D-26">
          <mxGeometry x="-1" relative="1" as="geometry">
            <mxPoint x="250" y="568" as="targetPoint" />
            <Array as="points" />
            <mxPoint as="offset" />
          </mxGeometry>
        </mxCell>
        <mxCell id="GYu9iGJZc0O5hkO0sN7D-26" value="humidite++" style="rounded=1;whiteSpace=wrap;html=1;arcSize=40;fontColor=#000000;fillColor=#ffffc0;strokeColor=#ff0000;" vertex="1" parent="1">
          <mxGeometry x="155" y="548" width="120" height="40" as="geometry" />
        </mxCell>
        <mxCell id="GYu9iGJZc0O5hkO0sN7D-27" value="" style="edgeStyle=orthogonalEdgeStyle;html=1;verticalAlign=bottom;endArrow=open;endSize=8;strokeColor=#ff0000;rounded=0;" edge="1" parent="1" source="GYu9iGJZc0O5hkO0sN7D-26">
          <mxGeometry relative="1" as="geometry">
            <mxPoint x="215" y="628" as="targetPoint" />
          </mxGeometry>
        </mxCell>
        <mxCell id="GYu9iGJZc0O5hkO0sN7D-28" value="hum &amp;gt; hum_max" style="rhombus;whiteSpace=wrap;html=1;fontColor=#000000;fillColor=#ffffc0;strokeColor=#ff0000;" vertex="1" parent="1">
          <mxGeometry x="340" y="468" width="150" height="40" as="geometry" />
        </mxCell>
        <mxCell id="GYu9iGJZc0O5hkO0sN7D-29" value="no" style="edgeStyle=orthogonalEdgeStyle;html=1;align=left;verticalAlign=bottom;endArrow=open;endSize=8;strokeColor=#ff0000;rounded=0;" edge="1" parent="1" source="GYu9iGJZc0O5hkO0sN7D-28">
          <mxGeometry x="-1" relative="1" as="geometry">
            <mxPoint x="510" y="628" as="targetPoint" />
            <Array as="points">
              <mxPoint x="510" y="488" />
              <mxPoint x="510" y="628" />
            </Array>
          </mxGeometry>
        </mxCell>
        <mxCell id="GYu9iGJZc0O5hkO0sN7D-30" value="humidite--" style="rounded=1;whiteSpace=wrap;html=1;arcSize=40;fontColor=#000000;fillColor=#ffffc0;strokeColor=#ff0000;" vertex="1" parent="1">
          <mxGeometry x="355" y="548" width="120" height="40" as="geometry" />
        </mxCell>
        <mxCell id="GYu9iGJZc0O5hkO0sN7D-31" value="" style="edgeStyle=orthogonalEdgeStyle;html=1;verticalAlign=bottom;endArrow=open;endSize=8;strokeColor=#ff0000;rounded=0;" edge="1" parent="1" source="GYu9iGJZc0O5hkO0sN7D-30">
          <mxGeometry relative="1" as="geometry">
            <mxPoint x="415" y="628" as="targetPoint" />
            <Array as="points">
              <mxPoint x="415" y="628" />
            </Array>
          </mxGeometry>
        </mxCell>
        <mxCell id="GYu9iGJZc0O5hkO0sN7D-32" value="" style="edgeStyle=orthogonalEdgeStyle;html=1;verticalAlign=bottom;endArrow=open;endSize=8;strokeColor=#ff0000;rounded=0;exitX=0.5;exitY=1;exitDx=0;exitDy=0;entryX=0.5;entryY=0;entryDx=0;entryDy=0;" edge="1" parent="1" source="GYu9iGJZc0O5hkO0sN7D-28" target="GYu9iGJZc0O5hkO0sN7D-30">
          <mxGeometry relative="1" as="geometry">
            <mxPoint x="225" y="628" as="targetPoint" />
            <mxPoint x="225" y="598" as="sourcePoint" />
          </mxGeometry>
        </mxCell>
        <mxCell id="GYu9iGJZc0O5hkO0sN7D-50" value="&lt;span style=&quot;text-align: left;&quot;&gt;yes&lt;/span&gt;" style="edgeLabel;html=1;align=center;verticalAlign=middle;resizable=0;points=[];" vertex="1" connectable="0" parent="GYu9iGJZc0O5hkO0sN7D-32">
          <mxGeometry x="-0.4167" y="1" relative="1" as="geometry">
            <mxPoint x="14" y="-3" as="offset" />
          </mxGeometry>
        </mxCell>
        <mxCell id="GYu9iGJZc0O5hkO0sN7D-33" value="" style="shape=line;html=1;strokeWidth=6;strokeColor=#ff0000;" vertex="1" parent="1">
          <mxGeometry x="200" y="628" width="320" height="10" as="geometry" />
        </mxCell>
        <mxCell id="GYu9iGJZc0O5hkO0sN7D-34" value="" style="edgeStyle=orthogonalEdgeStyle;html=1;verticalAlign=bottom;endArrow=open;endSize=8;strokeColor=#ff0000;rounded=0;entryX=0.5;entryY=0;entryDx=0;entryDy=0;" edge="1" parent="1" source="GYu9iGJZc0O5hkO0sN7D-33" target="GYu9iGJZc0O5hkO0sN7D-36">
          <mxGeometry relative="1" as="geometry">
            <mxPoint x="360" y="708" as="targetPoint" />
            <Array as="points">
              <mxPoint x="360" y="708" />
              <mxPoint x="590" y="708" />
              <mxPoint x="590" y="188" />
              <mxPoint x="725" y="188" />
            </Array>
          </mxGeometry>
        </mxCell>
        <mxCell id="GYu9iGJZc0O5hkO0sN7D-36" value="&lt;font style=&quot;font-size: 10px;&quot;&gt;resistance_gaz &amp;lt; min_resistance_gaz&lt;/font&gt;&lt;div&gt;&lt;font style=&quot;font-size: 10px;&quot;&gt;OR&amp;nbsp;&lt;/font&gt;&lt;/div&gt;&lt;div&gt;&lt;font style=&quot;font-size: 10px;&quot;&gt;IAQ &amp;gt; max_IAQ&lt;/font&gt;&lt;/div&gt;" style="rhombus;whiteSpace=wrap;html=1;fontColor=#000000;fillColor=#ffffc0;strokeColor=#ff0000;" vertex="1" parent="1">
          <mxGeometry x="615" y="277" width="220" height="125" as="geometry" />
        </mxCell>
        <mxCell id="GYu9iGJZc0O5hkO0sN7D-37" value="no" style="edgeStyle=orthogonalEdgeStyle;html=1;align=left;verticalAlign=bottom;endArrow=open;endSize=8;strokeColor=#ff0000;rounded=0;entryX=0;entryY=0.5;entryDx=0;entryDy=0;" edge="1" parent="1" source="GYu9iGJZc0O5hkO0sN7D-36" target="GYu9iGJZc0O5hkO0sN7D-41">
          <mxGeometry x="0.3333" y="32" relative="1" as="geometry">
            <mxPoint x="900" y="367" as="targetPoint" />
            <mxPoint x="-5" y="1" as="offset" />
          </mxGeometry>
        </mxCell>
        <mxCell id="GYu9iGJZc0O5hkO0sN7D-38" value="yes" style="edgeStyle=orthogonalEdgeStyle;html=1;align=left;verticalAlign=top;endArrow=open;endSize=8;strokeColor=#ff0000;rounded=0;entryX=0.5;entryY=0;entryDx=0;entryDy=0;" edge="1" parent="1" source="GYu9iGJZc0O5hkO0sN7D-36" target="GYu9iGJZc0O5hkO0sN7D-39">
          <mxGeometry x="-1" relative="1" as="geometry">
            <mxPoint x="760" y="447" as="targetPoint" />
            <Array as="points" />
          </mxGeometry>
        </mxCell>
        <mxCell id="GYu9iGJZc0O5hkO0sN7D-39" value="ventilation++" style="rounded=1;whiteSpace=wrap;html=1;arcSize=40;fontColor=#000000;fillColor=#ffffc0;strokeColor=#ff0000;" vertex="1" parent="1">
          <mxGeometry x="665" y="427" width="120" height="40" as="geometry" />
        </mxCell>
        <mxCell id="GYu9iGJZc0O5hkO0sN7D-40" value="" style="edgeStyle=orthogonalEdgeStyle;html=1;verticalAlign=bottom;endArrow=open;endSize=8;strokeColor=#ff0000;rounded=0;" edge="1" parent="1" source="GYu9iGJZc0O5hkO0sN7D-39">
          <mxGeometry relative="1" as="geometry">
            <mxPoint x="725" y="507" as="targetPoint" />
          </mxGeometry>
        </mxCell>
        <mxCell id="GYu9iGJZc0O5hkO0sN7D-41" value="resistance_gaz &amp;gt; max_resistance_gaz" style="rhombus;whiteSpace=wrap;html=1;fontColor=#000000;fillColor=#ffffc0;strokeColor=#ff0000;" vertex="1" parent="1">
          <mxGeometry x="845" y="288.25" width="160" height="102.5" as="geometry" />
        </mxCell>
        <mxCell id="GYu9iGJZc0O5hkO0sN7D-42" value="no" style="edgeStyle=orthogonalEdgeStyle;html=1;align=left;verticalAlign=bottom;endArrow=open;endSize=8;strokeColor=#ff0000;rounded=0;exitX=1;exitY=0.5;exitDx=0;exitDy=0;" edge="1" parent="1" source="GYu9iGJZc0O5hkO0sN7D-41">
          <mxGeometry x="-1" relative="1" as="geometry">
            <mxPoint x="1020" y="508" as="targetPoint" />
            <Array as="points">
              <mxPoint x="1020" y="340" />
              <mxPoint x="1020" y="507" />
            </Array>
            <mxPoint x="1050" y="339.5" as="sourcePoint" />
          </mxGeometry>
        </mxCell>
        <mxCell id="GYu9iGJZc0O5hkO0sN7D-43" value="ventilation--" style="rounded=1;whiteSpace=wrap;html=1;arcSize=40;fontColor=#000000;fillColor=#ffffc0;strokeColor=#ff0000;" vertex="1" parent="1">
          <mxGeometry x="865" y="427" width="120" height="40" as="geometry" />
        </mxCell>
        <mxCell id="GYu9iGJZc0O5hkO0sN7D-44" value="" style="edgeStyle=orthogonalEdgeStyle;html=1;verticalAlign=bottom;endArrow=open;endSize=8;strokeColor=#ff0000;rounded=0;" edge="1" parent="1" source="GYu9iGJZc0O5hkO0sN7D-43">
          <mxGeometry relative="1" as="geometry">
            <mxPoint x="925" y="507" as="targetPoint" />
            <Array as="points">
              <mxPoint x="925" y="507" />
            </Array>
          </mxGeometry>
        </mxCell>
        <mxCell id="GYu9iGJZc0O5hkO0sN7D-45" value="" style="edgeStyle=orthogonalEdgeStyle;html=1;verticalAlign=bottom;endArrow=open;endSize=8;strokeColor=#ff0000;rounded=0;exitX=0.5;exitY=1;exitDx=0;exitDy=0;entryX=0.5;entryY=0;entryDx=0;entryDy=0;" edge="1" parent="1" source="GYu9iGJZc0O5hkO0sN7D-41" target="GYu9iGJZc0O5hkO0sN7D-43">
          <mxGeometry relative="1" as="geometry">
            <mxPoint x="735" y="507" as="targetPoint" />
            <mxPoint x="735" y="477" as="sourcePoint" />
          </mxGeometry>
        </mxCell>
        <mxCell id="GYu9iGJZc0O5hkO0sN7D-46" value="" style="shape=line;html=1;strokeWidth=6;strokeColor=#ff0000;" vertex="1" parent="1">
          <mxGeometry x="710" y="507" width="320" height="10" as="geometry" />
        </mxCell>
        <mxCell id="GYu9iGJZc0O5hkO0sN7D-47" value="" style="edgeStyle=orthogonalEdgeStyle;html=1;verticalAlign=bottom;endArrow=open;endSize=8;strokeColor=#ff0000;rounded=0;" edge="1" parent="1" source="GYu9iGJZc0O5hkO0sN7D-46">
          <mxGeometry relative="1" as="geometry">
            <mxPoint x="870" y="587" as="targetPoint" />
            <Array as="points">
              <mxPoint x="870" y="587" />
            </Array>
          </mxGeometry>
        </mxCell>
        <mxCell id="GYu9iGJZc0O5hkO0sN7D-48" value="" style="ellipse;html=1;shape=endState;fillColor=#000000;strokeColor=#ff0000;" vertex="1" parent="1">
          <mxGeometry x="855" y="588" width="30" height="30" as="geometry" />
        </mxCell>
      </root>
    </mxGraphModel>
  </diagram>
</mxfile>
